<?xml version="1.0" encoding="utf-8"?>
<svg viewBox="74.49706268310547 267.7535705566406 265.0999450683594 144.79998779296875" width="265.0999450683594" height="144.79998779296875" xmlns="http://www.w3.org/2000/svg"><g transform="matrix(1, 0, 0, 1, -27.502933502197266, 13.153576850891113)">
					<g>
						<path d="M 324.899988 375.600006 A 22.1 22.1 0 0 1 302.799988 397.700006 A 22.1 22.1 0 0 1 280.699987 375.600006 A 22.1 22.1 0 0 1 302.799988 353.500006 A 22.1 22.1 0 0 1 324.899988 375.600006 Z" class="st1" style="fill: rgb(122, 136, 153);"/>
						<path d="M 316.699987 375.600006 A 13.9 13.9 0 0 1 302.799988 389.500006 A 13.9 13.9 0 0 1 288.899988 375.600006 A 13.9 13.9 0 0 1 302.799988 361.700006 A 13.9 13.9 0 0 1 316.699987 375.600006 Z" class="st2" style="fill: rgb(255, 255, 255);"/>
						<path class="st3" d="M302.8,399.4c-13.1,0-23.8-10.7-23.8-23.8s10.7-23.8,23.8-23.8c13.1,0,23.8,10.7,23.8,23.8&#10;&#9;&#9;&#9;&#9;&#9;&#9;&#9;S315.9,399.4,302.8,399.4z M302.8,355.3c-11.2,0-20.3,9.1-20.3,20.3s9.1,20.3,20.3,20.3c11.2,0,20.3-9.1,20.3-20.3&#10;&#9;&#9;&#9;&#9;&#9;&#9;&#9;S314,355.3,302.8,355.3z" style="fill: rgb(60, 77, 113);"/>
						<path d="M 309.799988 375.600006 A 7 7 0 0 1 302.799988 382.600006 A 7 7 0 0 1 295.799988 375.600006 A 7 7 0 0 1 302.799988 368.600006 A 7 7 0 0 1 309.799988 375.600006 Z" class="st4" style="fill: rgb(211, 122, 167);"/>
						<path class="st3" d="M302.8,384.3c-4.8,0-8.7-3.9-8.7-8.7s3.9-8.7,8.7-8.7c4.8,0,8.7,3.9,8.7,8.7S307.6,384.3,302.8,384.3z&#10;&#9;&#9;&#9;&#9;&#9;&#9;&#9; M302.8,370.4c-2.9,0-5.2,2.3-5.2,5.2s2.3,5.2,5.2,5.2c2.9,0,5.2-2.3,5.2-5.2S305.7,370.4,302.8,370.4z" style="fill: rgb(60, 77, 113);"/>
					</g>
					<g>
						<path d="M 197.999994 375.600006 A 22.1 22.1 0 0 1 175.899994 397.700006 A 22.1 22.1 0 0 1 153.799994 375.600006 A 22.1 22.1 0 0 1 175.899994 353.500006 A 22.1 22.1 0 0 1 197.999994 375.600006 Z" class="st1" style="fill: rgb(122, 136, 153);"/>
						<path d="M 189.799994 375.600006 A 13.9 13.9 0 0 1 175.899994 389.500006 A 13.9 13.9 0 0 1 161.999994 375.600006 A 13.9 13.9 0 0 1 175.899994 361.700006 A 13.9 13.9 0 0 1 189.799994 375.600006 Z" class="st2" style="fill: rgb(255, 255, 255);"/>
						<path class="st3" d="M175.9,399.4c-13.1,0-23.8-10.7-23.8-23.8s10.7-23.8,23.8-23.8s23.8,10.7,23.8,23.8&#10;&#9;&#9;&#9;&#9;&#9;&#9;&#9;S189,399.4,175.9,399.4z M175.9,355.3c-11.2,0-20.3,9.1-20.3,20.3s9.1,20.3,20.3,20.3s20.3-9.1,20.3-20.3&#10;&#9;&#9;&#9;&#9;&#9;&#9;&#9;S187.1,355.3,175.9,355.3z" style="fill: rgb(60, 77, 113);"/>
						<path d="M 182.899994 375.600006 A 7 7 0 0 1 175.899994 382.600006 A 7 7 0 0 1 168.899994 375.600006 A 7 7 0 0 1 175.899994 368.600006 A 7 7 0 0 1 182.899994 375.600006 Z" class="st5" style="fill: rgb(226, 195, 128);"/>
						<path class="st3" d="M175.9,384.3c-4.8,0-8.7-3.9-8.7-8.7s3.9-8.7,8.7-8.7s8.7,3.9,8.7,8.7S180.6,384.3,175.9,384.3z&#10;&#9;&#9;&#9;&#9;&#9;&#9;&#9; M175.9,370.4c-2.9,0-5.2,2.3-5.2,5.2s2.3,5.2,5.2,5.2s5.2-2.3,5.2-5.2S178.7,370.4,175.9,370.4z" style="fill: rgb(60, 77, 113);"/>
					</g>
					<path class="st6" d="M352.8,285.2c-2.2-11-11.8-18.9-23-18.9H159.7c-13.9,0-25.9,9.4-29.3,22.9l-3,12.2c-1.2,4.7-3.6,9-7,12.4&#10;&#9;&#9;&#9;&#9;&#9;&#9;l-0.1,0.1c-5,5.1-7.8,11.9-7.8,19v33.4c0,6.1,4.9,11,11,11h24.2l1.2-10.5c1.2-9.8,9.4-17.1,19.3-17.1h15.1&#10;&#9;&#9;&#9;&#9;&#9;&#9;c9.8,0,18.1,7.4,19.3,17.1l1.2,10.5h69.5l1.1-10.3c0.2-1.8,1.7-3.2,3.6-3.2h49.6c1.8,0,3.4,1.4,3.6,3.2l1.1,10.3h21.2&#10;&#9;&#9;&#9;&#9;&#9;&#9;c3.1,0,5.5-2.5,5.5-5.5v-55.5L352.8,285.2z" style="fill: rgb(126, 209, 227);"/>
					<path class="st7" d="M301.2,363.7h10.1c6.5-16.9,22.9-28.9,42-28.9c1.9,0,3.9,0.1,5.7,0.4v-9.6c-1.9-0.2-3.8-0.3-5.7-0.3&#10;&#9;&#9;&#9;&#9;&#9;&#9;C328.8,325.3,308.1,341.5,301.2,363.7z" style="fill: rgb(239, 231, 141);"/>
					<path class="st4" d="M315.9,363.7h10.3c5.5-9.2,15.6-15.4,27-15.4c2,0,3.9,0.2,5.7,0.5v-9.3c-1.9-0.3-3.8-0.4-5.7-0.4&#10;&#9;&#9;&#9;&#9;&#9;&#9;C336.6,339.1,322.2,349.2,315.9,363.7z" style="fill: rgb(211, 122, 167);"/>
					<path class="st2" d="M324.7,363.7h2.9c1.8,0,3.4,1.4,3.6,3.2l0.4,3.6c3.6-8.4,12-14.4,21.7-14.4c2,0,3.9,0.2,5.7,0.7v-9.4&#10;&#9;&#9;&#9;&#9;&#9;&#9;c-1.9-0.3-3.8-0.5-5.7-0.5C341,347,330.3,353.7,324.7,363.7z" style="fill: rgb(255, 255, 255);"/>
					<path d="M 103.699997 343.5 H 112.599997 V 358.9 H 103.699997 V 343.5 Z" class="st2" style="fill: rgb(255, 255, 255);"/>
					<path class="st3" d="M114.3,360.6H102v-18.8h12.3V360.6z M105.4,357.1h5.4v-11.9h-5.4V357.1z" style="fill: rgb(60, 77, 113);"/>
					<path class="st3" d="M353.5,379h-22.8l-1.2-11.9c-0.1-1-0.9-1.7-1.9-1.7H278c-1,0-1.8,0.7-1.9,1.7l-1.2,11.9h-72.5l-1.4-12&#10;&#9;&#9;&#9;&#9;&#9;&#9;c-1.1-8.9-8.6-15.6-17.6-15.6h-15.1c-9,0-16.5,6.7-17.6,15.6l-1.4,12h-25.7c-7,0-12.8-5.7-12.8-12.8v-33.4&#10;&#9;&#9;&#9;&#9;&#9;&#9;c0-7.6,2.9-14.8,8.3-20.2l0.1-0.1c3.2-3.2,5.4-7.3,6.5-11.6l3-12.2c3.5-14.2,16.3-24.2,30.9-24.2h170.2&#10;&#9;&#9;&#9;&#9;&#9;&#9;c12,0,22.3,8.5,24.7,20.2v0l6.2,31.2v55.7C360.7,375.7,357.5,379,353.5,379z M333.8,375.5h19.7c2.1,0,3.8-1.7,3.8-3.8v-55.3&#10;&#9;&#9;&#9;&#9;&#9;&#9;l-6.1-30.9c-2-10.1-11-17.5-21.3-17.5H159.7c-13.1,0-24.4,8.9-27.6,21.6l-3,12.2c-1.2,5-3.8,9.6-7.4,13.2l-0.1,0.1&#10;&#9;&#9;&#9;&#9;&#9;&#9;c-4.7,4.8-7.3,11.1-7.3,17.8v33.4c0,5.1,4.2,9.3,9.3,9.3h22.6l1.1-8.9c1.3-10.6,10.3-18.7,21-18.7h15.1c10.7,0,19.7,8,21,18.7&#10;&#9;&#9;&#9;&#9;&#9;&#9;l1.1,8.9h66.4l0.9-8.8c0.3-2.7,2.6-4.8,5.3-4.8h49.6c2.7,0,5,2.1,5.3,4.8L333.8,375.5z" style="fill: rgb(60, 77, 113);"/>
					<path class="st2" d="M359.6,366.3h-10.8c-3.2,0-5.8,2.6-5.8,5.8v2.8c0,3.2,2.6,5.8,5.8,5.8h10.8c3.2,0,5.8-2.6,5.8-5.8V372&#10;&#9;&#9;&#9;&#9;&#9;&#9;C365.3,368.9,362.8,366.3,359.6,366.3z" style="fill: rgb(255, 255, 255);"/>
					<path class="st3" d="M359.6,382.3h-10.8c-4.1,0-7.5-3.4-7.5-7.5V372c0-4.1,3.4-7.5,7.5-7.5h10.8c4.1,0,7.5,3.4,7.5,7.5v2.8&#10;&#9;&#9;&#9;&#9;&#9;&#9;C367.1,379,363.7,382.3,359.6,382.3z M348.8,368c-2.2,0-4,1.8-4,4v2.8c0,2.2,1.8,4,4,4h10.8c2.2,0,4-1.8,4-4V372&#10;&#9;&#9;&#9;&#9;&#9;&#9;c0-2.2-1.8-4-4-4H348.8z" style="fill: rgb(60, 77, 113);"/>
					<path class="st2" d="M329.9,266.3H159.7c-13.9,0-25.9,9.4-29.3,22.9l-3,12.2c-1.2,4.7-3.6,9-7,12.4l-0.1,0.1&#10;&#9;&#9;&#9;&#9;&#9;&#9;c-2.3,2.3-4.1,5-5.4,7.9H359v-5.5l-6.2-31.1C350.7,274.2,341,266.3,329.9,266.3z" style="fill: rgb(255, 255, 255);"/>
					<path class="st3" d="M360.7,323.5H112.3l1.1-2.4c1.4-3.1,3.3-6,5.7-8.4l0.1-0.1c3.2-3.2,5.4-7.3,6.5-11.6l3-12.2&#10;&#9;&#9;&#9;&#9;&#9;&#9;c3.5-14.2,16.3-24.2,30.9-24.2h170.2c12,0,22.3,8.5,24.7,20.2l6.2,31.2V323.5z M117.8,320.1h239.5v-3.7l-6.1-30.9&#10;&#9;&#9;&#9;&#9;&#9;&#9;c-2-10.1-11-17.5-21.3-17.5H159.7c-13.1,0-24.4,8.9-27.6,21.6l-3,12.2c-1.2,5-3.8,9.6-7.4,13.2l-0.1,0.1&#10;&#9;&#9;&#9;&#9;&#9;&#9;C120.1,316.6,118.8,318.3,117.8,320.1z" style="fill: rgb(60, 77, 113);"/>
					<g>
						<g>
							<path class="st8" d="M194.3,281.2v25.7c0,2.7-2.2,4.9-4.9,4.9h-46.3c-4.1,0-7.1-3.9-6.1-7.9c0,0,0-0.1,0-0.1l3-12.2&#10;&#9;&#9;&#9;&#9;&#9;&#9;&#9;&#9;c2.2-9,10.3-15.3,19.6-15.3h29.8C192.1,276.3,194.3,278.5,194.3,281.2z M216.5,311.8h50.2c2.8,0,5.1-2.3,5.1-5.1v-25.4&#10;&#9;&#9;&#9;&#9;&#9;&#9;&#9;&#9;c0-2.8-2.3-5.1-5.1-5.1h-50.2c-2.8,0-5.1,2.3-5.1,5.1v25.4C211.5,309.5,213.7,311.8,216.5,311.8z M337.4,299.8l-2.5-12.7&#10;&#9;&#9;&#9;&#9;&#9;&#9;&#9;&#9;c-1.2-6.3-6.8-10.8-13.2-10.8H294c-2.8,0-5.1,2.3-5.1,5.1v25.4c0,2.8,2.3,5.1,5.1,5.1h33.6&#10;&#9;&#9;&#9;&#9;&#9;&#9;&#9;&#9;C333.9,311.8,338.6,306,337.4,299.8z" style="fill: rgb(208, 234, 239);"/>
							<g>
								<path class="st9" d="M189.4,276.3h-29.8c-8.4,0-15.8,5.2-18.8,12.8c3.6-3.4,8.5-5.4,13.8-5.4h29.8c2.7,0,4.9,2.2,4.9,4.9&#10;&#9;&#9;&#9;&#9;&#9;&#9;&#9;&#9;&#9;v23.3h0.1c2.7,0,4.9-2.2,4.9-4.9v-25.7C194.3,278.5,192.1,276.3,189.4,276.3z" style="fill: rgb(163, 201, 206);"/>
								<path class="st9" d="M337.4,299.8l-2.5-12.7c-1.2-6.3-6.8-10.8-13.2-10.8H294c-2.8,0-5.1,2.3-5.1,5.1v2.3c0,0,0,0,0.1,0&#10;&#9;&#9;&#9;&#9;&#9;&#9;&#9;&#9;&#9;h27.7c6.4,0,11.9,4.6,13.2,10.8l2.5,12.7c0.2,1.1,0.2,2.3,0.1,3.3C336.1,308.5,338.3,304.3,337.4,299.8z" style="fill: rgb(163, 201, 206);"/>
								<path class="st9" d="M266.7,276.3h-50.2c-2.8,0-5.1,2.3-5.1,5.1v2.3c0,0,0,0,0.1,0h50.2c2.8,0,5.1,2.3,5.1,5.1v23.1&#10;&#9;&#9;&#9;&#9;&#9;&#9;&#9;&#9;&#9;c2.8,0,5-2.3,5-5.1v-25.4C271.8,278.6,269.5,276.3,266.7,276.3z" style="fill: rgb(163, 201, 206);"/>
							</g>
						</g>
						<path class="st3" d="M327.6,313.5H294c-3.7,0-6.8-3-6.8-6.8v-25.4c0-3.7,3-6.8,6.8-6.8h27.7c7.2,0,13.5,5.1,14.9,12.2&#10;&#9;&#9;&#9;&#9;&#9;&#9;&#9;l2.5,12.7c0.7,3.5-0.2,7-2.4,9.7C334.4,312,331.1,313.5,327.6,313.5z M294,278c-1.8,0-3.3,1.5-3.3,3.3v25.4&#10;&#9;&#9;&#9;&#9;&#9;&#9;&#9;c0,1.8,1.5,3.3,3.3,3.3h33.6c2.5,0,4.8-1.1,6.4-3c1.6-1.9,2.2-4.4,1.7-6.9l-2.5-12.7c-1.1-5.5-5.9-9.4-11.5-9.4H294z&#10;&#9;&#9;&#9;&#9;&#9;&#9;&#9; M266.7,313.5h-50.2c-3.7,0-6.8-3-6.8-6.8v-25.4c0-3.7,3-6.8,6.8-6.8h50.2c3.7,0,6.8,3,6.8,6.8v25.4&#10;&#9;&#9;&#9;&#9;&#9;&#9;&#9;C273.5,310.5,270.5,313.5,266.7,313.5z M216.5,278c-1.8,0-3.3,1.5-3.3,3.3v25.4c0,1.8,1.5,3.3,3.3,3.3h50.2&#10;&#9;&#9;&#9;&#9;&#9;&#9;&#9;c1.8,0,3.3-1.5,3.3-3.3v-25.4c0-1.8-1.5-3.3-3.3-3.3H216.5z M189.4,313.5h-46.3c-2.5,0-4.8-1.1-6.3-3.1c-1.5-2-2.1-4.5-1.5-7&#10;&#9;&#9;&#9;&#9;&#9;&#9;&#9;l3.1-12.3c2.4-9.8,11.2-16.6,21.3-16.6h29.8c3.6,0,6.6,3,6.6,6.6v25.7C196,310.6,193.1,313.5,189.4,313.5z M159.7,278&#10;&#9;&#9;&#9;&#9;&#9;&#9;&#9;c-8.5,0-15.9,5.8-17.9,14l-3.1,12.3c-0.4,1.4-0.1,2.9,0.8,4c0.9,1.1,2.2,1.8,3.6,1.8h46.3c1.7,0,3.2-1.4,3.2-3.2v-25.7&#10;&#9;&#9;&#9;&#9;&#9;&#9;&#9;c0-1.7-1.4-3.2-3.2-3.2H159.7z" style="fill: rgb(60, 77, 113);"/>
					</g>
					<path d="M 157.300003 276.299988 H 160.700003 V 311.199989 H 157.300003 V 276.299988 Z" class="st3" style="fill: rgb(60, 77, 113);"/>
					<path d="M 152.100006 301.399994 H 155.500006 V 317.799994 H 152.100006 V 301.399994 Z" class="st3" style="fill: rgb(60, 77, 113);"/>
					<path d="M 181.300003 325.799988 H 190.700003 V 329.199988 H 181.300003 V 325.799988 Z" class="st3" style="fill: rgb(60, 77, 113);"/>
					<path d="M 215.100006 325.799988 H 224.500006 V 329.199988 H 215.100006 V 325.799988 Z" class="st3" style="fill: rgb(60, 77, 113);"/>
					<path d="M 339.700012 280.299988 H 346.200012 V 283.699988 H 339.700012 V 280.299988 Z" class="st3" style="fill: rgb(60, 77, 113);"/>
					<path d="M 340.799988 287.799988 H 347.299988 V 291.199988 H 340.799988 V 287.799988 Z" class="st3" style="fill: rgb(60, 77, 113);"/>
					<path d="M 341.799988 295.200012 H 348.299988 V 298.600012 H 341.799988 V 295.200012 Z" class="st3" style="fill: rgb(60, 77, 113);"/>
					<path d="M 342.799988 302.600006 H 349.299988 V 306.000006 H 342.799988 V 302.600006 Z" class="st3" style="fill: rgb(60, 77, 113);"/>
					<path class="st10" d="M261.1,351.1c-0.8-3.9-2.8-7-6.1-9.4c-6.3-4.4-15-4.8-21.7-1.1c-0.5,0.3-0.8,0.7-0.9,1.1&#10;&#9;&#9;&#9;&#9;&#9;&#9;c-3.8,3.1-5.6,8.3-5,13.4c0.4,3.7,2,7.3,4.4,10.1c2.4,2.9,5.7,4.3,9.4,4.8c7.3,0.9,16.1-0.7,19.4-8.1&#10;&#9;&#9;&#9;&#9;&#9;&#9;C262,358.5,261.8,354.6,261.1,351.1z M231.6,357.9c-2.1-5.9,0-13.7,6.8-15.4c0.2,0,0.4-0.1,0.5-0.2c1.7,4,2.8,8.3,3.9,12.5&#10;&#9;&#9;&#9;&#9;&#9;&#9;c-0.9,1.6-2.4,2.9-3.3,4.5c-1.1,1.8-2.1,3.7-3.2,5.6C234,363.2,232.5,360.5,231.6,357.9z M245.4,366.8c-1.9,0-4-0.1-5.9-0.6&#10;&#9;&#9;&#9;&#9;&#9;&#9;c1-1.8,2-3.7,3.1-5.4c0.4-0.7,0.9-1.3,1.3-1.9c0.8,2.7,1.8,5.3,3.1,7.8C246.5,366.8,245.9,366.8,245.4,366.8z M250.5,366&#10;&#9;&#9;&#9;&#9;&#9;&#9;c0-0.1-0.1-0.3-0.2-0.4c-1.3-2.4-2.3-5-3.1-7.6c1.2,0.4,2.3,1,3.5,1.4c2,0.7,4.1,1.2,6.2,1.7&#10;&#9;&#9;&#9;&#9;&#9;&#9;C255.7,363.5,253.3,365.2,250.5,366z M258.1,357.5c0,0.1,0,0.2,0,0.3c-2.2-0.5-4.5-1.1-6.6-1.9c-1.7-0.6-3.3-1.4-5-1.8&#10;&#9;&#9;&#9;&#9;&#9;&#9;c-0.1-0.2-0.3-0.5-0.5-0.6c-1.1-4-2-8.1-3.6-11.9c2.6-0.1,5.2,0.3,7.7,1.3c2.6,1.1,5.2,3,6.5,5.6&#10;&#9;&#9;&#9;&#9;&#9;&#9;C257.9,351.2,258.4,354.6,258.1,357.5z" style="fill: rgb(77, 104, 153);"/>
					<path class="st5" d="M128.9,369.7c-1.4-1.5-2.5-3.3-3.1-5.3c-0.2-0.8-0.4-1.6-0.1-2.4c0.3-1,1.4-1.7,2.4-1.6&#10;&#9;&#9;&#9;&#9;&#9;&#9;c1,0.1,1.9,0.9,2.1,2c0.7-0.6,1.7-1,2.6-1.1s1.9,0.2,2.5,0.9c0.7,0.8,0.7,2.1,0.2,3.1s-1.4,1.7-2.3,2.3&#10;&#9;&#9;&#9;&#9;&#9;&#9;C132.1,368.5,130.2,369.3,128.9,369.7z" style="fill: rgb(226, 195, 128);"/>
					<g>
						<g>
							<path class="st11" d="M143.3,336.3c-1.7,0-2.9,1.5-2.6,3.1l1,4.9h3.2l1-4.9C146.2,337.8,144.9,336.3,143.3,336.3z" style="fill: rgb(226, 105, 113);"/>
							<path class="st11" d="M135.6,340.8c-0.8,1.4-0.1,3.3,1.4,3.8l4.7,1.6l1.6-2.8l-3.7-3.3C138.3,339.1,136.4,339.4,135.6,340.8z&#10;&#9;&#9;&#9;&#9;&#9;&#9;&#9;&#9;" style="fill: rgb(226, 105, 113);"/>
							<path class="st11" d="M135.6,349.8c0.8,1.4,2.8,1.8,4,0.7l3.7-3.3l-1.6-2.8l-4.7,1.6C135.5,346.5,134.8,348.3,135.6,349.8z" style="fill: rgb(226, 105, 113);"/>
							<path class="st11" d="M143.4,354.2c1.7,0,2.9-1.5,2.6-3.1l-1-4.9h-3.2l-1,4.9C140.5,352.6,141.7,354.2,143.4,354.2z" style="fill: rgb(226, 105, 113);"/>
							<path class="st11" d="M151.1,349.6c0.8-1.4,0.1-3.3-1.4-3.8l-4.7-1.6l-1.6,2.8l3.7,3.3C148.3,351.4,150.3,351.1,151.1,349.6z&#10;&#9;&#9;&#9;&#9;&#9;&#9;&#9;&#9;" style="fill: rgb(226, 105, 113);"/>
							<path class="st11" d="M151,340.7c-0.8-1.4-2.8-1.8-4-0.7l-3.7,3.3l1.6,2.8l4.7-1.6C151.2,344,151.9,342.1,151,340.7z" style="fill: rgb(226, 105, 113);"/>
						</g>
						<path d="M 146.900003 345.200012 A 3.6 3.6 0 0 1 143.300003 348.800012 A 3.6 3.6 0 0 1 139.700003 345.200012 A 3.6 3.6 0 0 1 143.300003 341.600012 A 3.6 3.6 0 0 1 146.900003 345.200012 Z" class="st2" style="fill: rgb(255, 255, 255);"/>
					</g>
					<g>
						<g>
							<path class="st4" d="M201.5,330.6c-1.7,0-2.9,1.5-2.6,3.1l1,4.9h3.2l1-4.9C204.4,332.1,203.2,330.6,201.5,330.6z" style="fill: rgb(211, 122, 167);"/>
							<path class="st4" d="M193.8,335.1c-0.8,1.4-0.1,3.3,1.4,3.8l4.7,1.6l1.6-2.8l-3.7-3.3C196.6,333.4,194.7,333.7,193.8,335.1z" style="fill: rgb(211, 122, 167);"/>
							<path class="st4" d="M193.9,344c0.8,1.4,2.8,1.8,4,0.7l3.7-3.3l-1.6-2.8l-4.7,1.6C193.8,340.8,193.1,342.6,193.9,344z" style="fill: rgb(211, 122, 167);"/>
							<path class="st4" d="M201.7,348.4c1.7,0,2.9-1.5,2.6-3.1l-1-4.9h-3.2l-1,4.9C198.8,346.9,200,348.4,201.7,348.4z" style="fill: rgb(211, 122, 167);"/>
							<path class="st4" d="M209.4,343.9c0.8-1.4,0.1-3.3-1.4-3.8l-4.7-1.6l-1.6,2.8l3.7,3.3C206.6,345.7,208.5,345.4,209.4,343.9z" style="fill: rgb(211, 122, 167);"/>
							<path class="st4" d="M209.3,335c-0.8-1.4-2.8-1.8-4-0.7l-3.7,3.3l1.6,2.8l4.7-1.6C209.4,338.3,210.1,336.4,209.3,335z" style="fill: rgb(211, 122, 167);"/>
						</g>
						<path d="M 205.1 339.5 A 3.6 3.6 0 0 1 201.5 343.1 A 3.6 3.6 0 0 1 197.9 339.5 A 3.6 3.6 0 0 1 201.5 335.9 A 3.6 3.6 0 0 1 205.1 339.5 Z" class="st7" style="fill: rgb(239, 231, 141);"/>
					</g>
					<g>
						<g>
							<path class="st2" d="M208.6,341.6c-1.7,0.9-2.2,3.2-0.9,4.8l3.8,4.5l3.4-1.8l-1.8-5.7C212.5,341.6,210.4,340.7,208.6,341.6z" style="fill: rgb(255, 255, 255);"/>
							<path class="st2" d="M203.1,350.8c0,2,1.7,3.5,3.7,3.2l5.8-1l0.1-3.8l-5.8-1.3C205,347.4,203.2,348.8,203.1,350.8z" style="fill: rgb(255, 255, 255);"/>
							<path class="st2" d="M208.3,360.1c1.7,1,3.9,0.3,4.6-1.6l2-5.6l-3.3-2l-4,4.4C206.3,356.8,206.6,359.1,208.3,360.1z" style="fill: rgb(255, 255, 255);"/>
							<path class="st2" d="M219,360.3c1.7-0.9,2.2-3.2,0.9-4.8l-3.8-4.5l-3.4,1.8l1.8,5.7C215.1,360.3,217.3,361.2,219,360.3z" style="fill: rgb(255, 255, 255);"/>
							<path class="st2" d="M224.5,351.1c0-2-1.7-3.5-3.7-3.2l-5.8,1l-0.1,3.8l5.8,1.3C222.6,354.5,224.4,353.1,224.5,351.1z" style="fill: rgb(255, 255, 255);"/>
							<path class="st2" d="M219.3,341.8c-1.7-1-3.9-0.3-4.6,1.6l-2,5.6l3.3,2l4-4.4C221.3,345.1,221,342.8,219.3,341.8z" style="fill: rgb(255, 255, 255);"/>
						</g>
						
							<path d="M 217.999997 351 A 4.3 4.3 0 0 1 213.699997 355.3 A 4.3 4.3 0 0 1 209.399997 351 A 4.3 4.3 0 0 1 213.699997 346.7 A 4.3 4.3 0 0 1 217.999997 351 Z" transform="matrix(0.8772 -0.4802 0.4802 0.8772 -142.2889 145.7543)" class="st11" style="fill: rgb(226, 105, 113);"/>
					</g>
					<g>
						<g>
							<path class="st7" d="M255.8,325.6c-1.3,0.7-1.6,2.4-0.7,3.6l2.9,3.4l2.5-1.4l-1.3-4.2C258.7,325.6,257.1,324.9,255.8,325.6z" style="fill: rgb(239, 231, 141);"/>
							<path class="st7" d="M251.7,332.5c0,1.5,1.3,2.6,2.8,2.4l4.4-0.8l0.1-2.9l-4.3-1C253.1,329.9,251.7,331,251.7,332.5z" style="fill: rgb(239, 231, 141);"/>
							<path class="st7" d="M255.6,339.4c1.3,0.8,2.9,0.2,3.4-1.2l1.5-4.2l-2.4-1.5l-3,3.3C254.1,336.9,254.3,338.7,255.6,339.4z" style="fill: rgb(239, 231, 141);"/>
							<path class="st7" d="M263.6,339.6c1.3-0.7,1.6-2.4,0.7-3.6l-2.9-3.4l-2.5,1.4l1.3,4.2C260.6,339.6,262.3,340.3,263.6,339.6z" style="fill: rgb(239, 231, 141);"/>
							<path class="st7" d="M267.7,332.7c0-1.5-1.3-2.6-2.8-2.4l-4.4,0.8l-0.1,2.9l4.3,1C266.2,335.3,267.6,334.2,267.7,332.7z" style="fill: rgb(239, 231, 141);"/>
							<path class="st7" d="M263.8,325.7c-1.3-0.8-2.9-0.2-3.4,1.2l-1.5,4.2l2.4,1.5l3-3.3C265.3,328.2,265,326.5,263.8,325.7z" style="fill: rgb(239, 231, 141);"/>
						</g>
						
							<path d="M 262.800006 332.600006 A 3.2 3.2 0 0 1 259.600006 335.800006 A 3.2 3.2 0 0 1 256.400006 332.600006 A 3.2 3.2 0 0 1 259.600006 329.400006 A 3.2 3.2 0 0 1 262.800006 332.600006 Z" transform="matrix(0.8772 -0.4802 0.4802 0.8772 -127.8309 165.5289)" class="st6" style="fill: rgb(126, 209, 227);"/>
					</g>
					<g>
						<g>
							<path class="st11" d="M222.8,330.4c-1.1,0.6-1.3,2-0.6,3l2.4,2.8l2.1-1.1l-1.1-3.5C225.2,330.4,223.9,329.9,222.8,330.4z" style="fill: rgb(226, 105, 113);"/>
							<path class="st11" d="M219.4,336.1c0,1.2,1.1,2.2,2.3,2l3.6-0.6l0.1-2.4l-3.6-0.8C220.6,334,219.4,334.9,219.4,336.1z" style="fill: rgb(226, 105, 113);"/>
							<path class="st11" d="M222.6,341.9c1,0.6,2.4,0.2,2.8-1l1.3-3.5l-2-1.2l-2.5,2.7C221.4,339.8,221.6,341.3,222.6,341.9z" style="fill: rgb(226, 105, 113);"/>
							<path class="st11" d="M229.3,342c1.1-0.6,1.3-2,0.6-3l-2.4-2.8l-2.1,1.1l1.1,3.5C226.8,342.1,228.2,342.6,229.3,342z" style="fill: rgb(226, 105, 113);"/>
							<path class="st11" d="M232.7,336.3c0-1.2-1.1-2.2-2.3-2l-3.6,0.6l-0.1,2.4l3.6,0.8C231.5,338.5,232.6,337.6,232.7,336.3z" style="fill: rgb(226, 105, 113);"/>
							<path class="st11" d="M229.4,330.6c-1-0.6-2.4-0.2-2.8,1l-1.3,3.5l2,1.2l2.5-2.7C230.7,332.6,230.5,331.2,229.4,330.6z" style="fill: rgb(226, 105, 113);"/>
						</g>
						
							<path d="M 228.7 336.299988 A 2.7 2.7 0 0 1 226 338.999988 A 2.7 2.7 0 0 1 223.3 336.299988 A 2.7 2.7 0 0 1 226 333.599988 A 2.7 2.7 0 0 1 228.7 336.299988 Z" transform="matrix(0.8772 -0.4802 0.4802 0.8772 -133.7083 149.8295)" class="st7" style="fill: rgb(239, 231, 141);"/>
					</g>
					<g>
						<path class="st10" d="M275.3,339.3c-0.6-1.1-2-1.8-3.3-2c-1.7-0.2-3.2,0.8-4.4,1.9c-0.1,0.1-0.2,0.2-0.2,0.3&#10;&#9;&#9;&#9;&#9;&#9;&#9;&#9;c-0.4,0.3-0.6,0.8-0.3,1.3c1.3,2.4,1.9,5,2.6,7.6c0.4,1.4,2.6,1,2.2-0.4c-0.3-1.1-0.6-2.2-0.9-3.3c1.5,0,2.9-0.4,3.8-1.7&#10;&#9;&#9;&#9;&#9;&#9;&#9;&#9;C275.8,342,276,340.5,275.3,339.3z M271.3,342.5c-0.3,0-0.6,0.1-0.8,0.3c-0.3-0.7-0.6-1.5-0.9-2.2c1-0.8,2.2-1.4,3.3-0.5&#10;&#9;&#9;&#9;&#9;&#9;&#9;&#9;C274.4,341.2,272.5,342.5,271.3,342.5z" style="fill: rgb(77, 104, 153);"/>
						<path class="st10" d="M282.3,342.2c-1,0.3-1.9,0.6-2.9,0.9c-0.1-0.4-0.2-0.9-0.3-1.3c0.9-0.3,1.9-0.7,2.8-1&#10;&#9;&#9;&#9;&#9;&#9;&#9;&#9;c0.6-0.2,0.8-1,0.5-1.5c-0.3-0.6-0.9-0.7-1.5-0.5c-0.8,0.3-1.6,0.5-2.3,0.8c0-0.2-0.1-0.4-0.1-0.6c-0.1-0.4-0.2-0.9-0.4-1.3&#10;&#9;&#9;&#9;&#9;&#9;&#9;&#9;l1.7-0.4c1.4-0.4,1-2.6-0.4-2.2c-1.1,0.3-2.2,0.6-3.4,0.9c-0.6,0.2-0.9,0.7-0.9,1.2c0,0.4,0.1,0.7,0.5,1c0.8,0.5,0.8,2.2,1,3&#10;&#9;&#9;&#9;&#9;&#9;&#9;&#9;c0.3,1.1,0.5,2.2,0.8,3.3c-0.1,0.3,0,0.6,0.1,0.8c0.3,0.6,1,0.7,1.5,0.5c1.2-0.4,2.5-0.9,3.8-1.2c0.6-0.2,1-0.7,0.9-1.3&#10;&#9;&#9;&#9;&#9;&#9;&#9;&#9;C283.5,342.5,282.9,342,282.3,342.2z" style="fill: rgb(77, 104, 153);"/>
						<path class="st10" d="M291.1,340.6c-1-1.5-2.2-3.1-3-4.7c-0.7-1.3-0.9-2.7-2.3-3.5c-1-0.6-2.1,0.5-1.7,1.4&#10;&#9;&#9;&#9;&#9;&#9;&#9;&#9;c0.2,1.7,0.1,3.5,0.1,5.3c-0.2,0.3-0.3,0.6-0.2,0.9c0,0.2,0.1,0.4,0.3,0.5c0.1,0.7,0.2,1.4,0.4,2.1c0.4,1.4,2.6,1,2.2-0.4&#10;&#9;&#9;&#9;&#9;&#9;&#9;&#9;c-0.1-0.5-0.2-1-0.3-1.5c0.3-0.1,0.7-0.2,1-0.3c0.2-0.1,0.3-0.1,0.5-0.2c0.3,0.5,0.7,1,1,1.5&#10;&#9;&#9;&#9;&#9;&#9;&#9;&#9;C289.9,342.8,291.9,341.8,291.1,340.6z M286.5,338.3c0-0.2,0-0.5,0-0.7c0,0,0,0.1,0.1,0.1c0.1,0.2,0.2,0.3,0.3,0.5&#10;&#9;&#9;&#9;&#9;&#9;&#9;&#9;C286.7,338.2,286.6,338.3,286.5,338.3z" style="fill: rgb(77, 104, 153);"/>
						<path class="st10" d="M303.7,335c-0.9,0.6-1.9,1.1-2.9,1.4c-0.2-0.6-0.3-1.2-0.5-1.8c1.1-0.4,2.2-0.9,3.2-1.6&#10;&#9;&#9;&#9;&#9;&#9;&#9;&#9;c0.5-0.3,0.8-0.9,0.5-1.5c-0.2-0.5-1-0.9-1.5-0.5c-0.9,0.6-1.8,1.1-2.8,1.5c-0.2-0.5-0.3-1-0.5-1.5c0.7-0.4,1.4-0.8,2.1-1.2&#10;&#9;&#9;&#9;&#9;&#9;&#9;&#9;c1.3-0.7,0.3-2.8-1-2c-1,0.6-2,1.2-3.1,1.7c-0.7,0.4-0.7,1.2-0.4,1.7c0.6,1.7,1.1,3.4,1.6,5.1c-0.5-0.5-1.3-0.6-1.7,0.1&#10;&#9;&#9;&#9;&#9;&#9;&#9;&#9;c-0.8,1.5-3,1.8-4.2,0.5c-1-1.1-0.8-5,1.3-4.7c1.5,0.2,1.6-2.1,0.2-2.3c-3.9-0.6-5.3,5.2-3.7,7.9c1.8,2.9,6.6,3,8.2-0.1&#10;&#9;&#9;&#9;&#9;&#9;&#9;&#9;c0.1-0.1,0.1-0.3,0.1-0.4c0,0.1,0.1,0.1,0.1,0.2c-0.3,0.8,0.2,1.8,1.2,1.5c1.6-0.4,3.2-1.1,4.6-2&#10;&#9;&#9;&#9;&#9;&#9;&#9;&#9;C306,336.2,305,334.2,303.7,335z" style="fill: rgb(77, 104, 153);"/>
						<path class="st10" d="M304.3,326l1.1,5.7c0.3,1.4,2.5,1,2.2-0.4l-1.1-5.7C306.2,324.2,304,324.6,304.3,326z" style="fill: rgb(77, 104, 153);"/>
						<path class="st10" d="M307.4,334.7c-1.4,0.3-1,2.5,0.4,2.2C309.3,336.7,308.9,334.5,307.4,334.7z" style="fill: rgb(77, 104, 153);"/>
					</g>
					<g>
						<path class="st3" d="M328.8,268h-73v-3.6c0-5.4,4.4-9.8,9.8-9.8H319c5.4,0,9.8,4.4,9.8,9.8V268z M259.2,264.6h66.1v-0.2&#10;&#9;&#9;&#9;&#9;&#9;&#9;&#9;c0-3.5-2.8-6.3-6.3-6.3h-53.4c-3.5,0-6.3,2.8-6.3,6.3V264.6z" style="fill: rgb(60, 77, 113);"/>
						<g>
							<path d="M 274.700012 256.299988 H 278.100012 V 265.299988 H 274.700012 V 256.299988 Z" class="st3" style="fill: rgb(60, 77, 113);"/>
							<path d="M 306.399994 256.299988 H 309.799994 V 265.299988 H 306.399994 V 256.299988 Z" class="st3" style="fill: rgb(60, 77, 113);"/>
						</g>
					</g>
				</g></svg>